<?xml version="1.0" encoding="UTF-8"?>
<svg version="1.1" xmlns="http://www.w3.org/2000/svg" width="874" height="994">
<path d="M0 0 C288.42 0 576.84 0 874 0 C874 328.02 874 656.04 874 994 C585.58 994 297.16 994 0 994 C0 665.98 0 337.96 0 0 Z " fill="#FFFFFF00" transform="translate(0,0)"/>
<path d="M0 0 C1.09894592 0.00215515 2.19789185 0.0043103 3.33013916 0.00653076 C82.57041179 0.25541994 159.34693427 28.17362 218.625 81.3125 C219.13047363 81.76157715 219.63594727 82.2106543 220.15673828 82.67333984 C231.29976748 92.59313297 242.24924582 102.89931915 251.5 114.6328125 C253.71768768 117.42938189 256.0412975 120.11228653 258.375 122.8125 C270.03886176 136.82357852 279.57144194 152.53137077 288.625 168.3125 C289.21958008 169.34262207 289.21958008 169.34262207 289.82617188 170.39355469 C302.73801275 193.00605937 311.63426732 217.31617481 318.625 242.3125 C318.85654785 243.13218262 319.0880957 243.95186523 319.32666016 244.79638672 C323.07076715 258.34779599 324.82069295 272.39528451 326.625 286.3125 C326.71433807 286.97398041 326.80367615 287.63546082 326.89572144 288.31698608 C328.5624477 300.81261597 328.98608841 313.15181702 328.9375 325.75 C328.93600952 326.71028107 328.93451904 327.67056213 328.9329834 328.65994263 C328.8892579 344.38790728 328.12318699 359.75805555 325.625 375.3125 C325.48578125 376.21258789 325.3465625 377.11267578 325.203125 378.04003906 C320.74426558 406.10401771 312.44451858 434.46312476 300.625 460.3125 C291.8457157 459.04808968 283.15762752 457.48408992 274.46154785 455.74163818 C239.90315595 448.84075623 205.17233412 442.55102433 170.31640625 437.34765625 C164.6264355 436.48994868 158.96542021 435.50503304 153.301651 434.49198914 C148.04100074 433.55395648 142.77381699 432.66545351 137.5 431.8046875 C112.85180533 427.77353005 88.27539199 423.41163696 63.7250824 418.82189941 C58.37319133 417.82150846 53.01892217 416.83786453 47.66015625 415.875 C-6.41099536 406.04637438 -6.41099536 406.04637438 -19.375 393.3125 C-21.03124214 390.00001572 -20.96941016 386.87896096 -20.375 383.3125 C-14.96382542 369.29667077 -0.23397358 363.09626079 12.625 357.3125 C20.92659109 353.6358029 29.31991491 350.65109887 38 348 C39.8720813 347.42415161 39.8720813 347.42415161 41.78198242 346.83666992 C59.70953066 341.3656236 77.86093517 336.71185638 96.0625 332.25 C106.87251646 329.59560565 117.49102417 326.43752448 128.10644531 323.09570312 C130.31239089 322.40971307 132.52302619 321.75098051 134.7421875 321.109375 C155.92767924 314.85503024 181.06742337 307.34397726 194.5625 288.625 C196.6756922 282.03681256 196.6945112 275.05124011 194 268.625 C193.24519495 267.16780691 192.45253555 265.72965464 191.625 264.3125 C191.2125 263.58546875 190.8 262.8584375 190.375 262.109375 C183.03437216 250.18085476 172.35026656 242.46704657 160.625 235.3125 C159.98788086 234.92175293 159.35076172 234.53100586 158.69433594 234.12841797 C136.96216833 220.96427069 112.702065 213.33236769 88.47998047 206.16064453 C85.8074326 205.36669624 83.13992559 204.55755777 80.47265625 203.74609375 C66.03647736 199.41902102 51.382828 196.32741935 36.625 193.3125 C34.94646907 192.96163289 33.26806733 192.61014673 31.58984375 192.2578125 C7.04463365 187.16215431 -17.68546255 183.06436519 -42.53955078 179.82324219 C-46.59124632 179.28370386 -50.63735219 178.71145228 -54.68359375 178.1328125 C-114.65005379 169.61347834 -175.09509286 165.5294317 -235.52607727 162.01582336 C-249.81325942 161.18000616 -264.09426986 160.25141149 -278.375 159.3125 C-277.27428447 157.40607835 -276.17110027 155.50108192 -275.06689453 153.59667969 C-274.45282745 152.53568054 -273.83876038 151.4746814 -273.20608521 150.38153076 C-270.75930256 146.28054672 -268.07525623 142.40880437 -265.25 138.5625 C-264.69650879 137.80372559 -264.14301758 137.04495117 -263.57275391 136.26318359 C-246.42221199 112.96150126 -226.53151759 89.80925421 -203.375 72.3125 C-202.12880009 71.32860397 -200.8841356 70.34276151 -199.640625 69.35546875 C-158.31981594 36.81214782 -110.02674509 15.14258539 -58.5 5 C-56.66683228 4.63612183 -56.66683228 4.63612183 -54.79663086 4.26489258 C-36.54963521 0.82511443 -18.54494458 -0.06552984 0 0 Z " fill="#365D95" transform="translate(440.375,158.6875)"/>
<path d="M0 0 C3.42141415 0.06494047 6.84289161 0.12483225 10.2644043 0.18432617 C33.89236604 0.61222182 57.43829483 1.48551693 80.99682617 3.37768555 C82.08178375 3.46383118 83.16674133 3.54997681 84.28457642 3.63873291 C145.17420205 8.50884112 205.86310398 17.24291619 265.42407227 30.89770508 C269.07688924 31.73156695 272.73614532 32.53270976 276.3972168 33.3293457 C284.42218147 35.08194444 292.40233698 37.00133249 300.35766602 39.04614258 C301.96161064 39.4581111 303.56616615 39.86770454 305.17114258 40.27563477 C373.7003875 57.70624687 373.7003875 57.70624687 378.62182617 62.62768555 C378.71329733 64.73720476 378.73307188 66.84984485 378.72593689 68.96133423 C378.72503543 69.6255985 378.72413398 70.28986278 378.72320521 70.97425628 C378.71890316 73.20463963 378.70735507 75.43492648 378.69580078 77.6652832 C378.69113427 79.25342002 378.68687731 80.84155808 378.68300533 82.42969704 C378.67132224 86.65133794 378.65326675 90.8729273 378.63340139 95.09453678 C378.61863674 98.32566738 378.60670565 101.5568053 378.59478384 104.78794742 C378.55694577 114.92953471 378.5054667 125.0710401 378.45270228 135.21255875 C378.42747318 140.11818281 378.40355573 145.02381327 378.37953186 149.92944336 C378.29885197 166.35458489 378.21634111 182.77971707 378.13206267 199.20484054 C378.05255752 214.69994643 377.97482595 230.19506037 377.89916992 245.69018555 C377.89010998 247.54051179 377.89010998 247.54051179 377.880867 249.42821836 C377.69154178 288.23304519 377.5625964 327.03770745 377.47087663 365.8428663 C377.44610602 376.28535709 377.41873586 386.72783877 377.38972473 397.1703186 C377.38561934 398.65383597 377.38151435 400.13735334 377.37740976 401.62087071 C377.36102797 407.5307391 377.34457757 413.44060729 377.32780659 419.3504746 C377.28046552 436.05333343 377.24006455 452.75616338 377.21536987 469.45907202 C377.19785311 481.19172213 377.16957238 492.92430828 377.13175207 504.65691066 C377.11156324 511.03919408 377.09605521 517.42139391 377.09376717 523.80371094 C377.06981902 574.42171764 376.91622272 628.80786253 356.37182617 676.19018555 C354.88770862 679.65017304 353.41905178 683.11134993 352.02416992 686.6081543 C348.32680258 695.84515733 344.25540142 704.78103358 339.66772461 713.60961914 C338.61160947 715.64739873 337.5733347 717.69363038 336.53588867 719.7409668 C322.81545499 746.53996084 304.93963585 771.32285476 284.58666992 793.47924805 C282.78186173 795.45269636 281.04231152 797.46632387 279.30932617 799.50268555 C274.81426146 804.67148361 269.89617235 809.43166735 265.0246582 814.24145508 C261.95384357 817.27592871 258.90886585 820.3332437 255.89526367 823.42456055 C250.34091242 829.10308474 244.6897187 834.40397685 238.46166992 839.35424805 C235.89242533 841.41105734 233.38438408 843.51849733 230.88647461 845.66015625 C178.70131538 890.3780823 116.13567903 923.95169599 52.58374023 949.43530273 C50.21064152 950.39064514 47.84678214 951.36195421 45.48901367 952.35424805 C33.58192267 957.29942041 21.31138994 961.30322261 9.10668945 965.44213867 C6.06466409 966.47703255 3.02788864 967.52545784 -0.00708008 968.58081055 C-11.67642379 972.60326936 -23.47391898 975.92035637 -35.41333008 979.0456543 C-41.27109557 980.58077379 -47.0612128 982.28261424 -52.83911133 984.09643555 C-55.51332115 984.65596253 -56.80974796 984.3714461 -59.37817383 983.62768555 C-58.09245483 983.10936157 -58.09245483 983.10936157 -56.78076172 982.58056641 C-40.30973431 975.92025246 -23.92427741 969.11560783 -7.75317383 961.75268555 C-7.0924588 961.45288788 -6.43174377 961.15309021 -5.75100708 960.84420776 C4.1593941 956.3385797 13.91622601 951.55768425 23.62182617 946.62768555 C24.75072266 946.05501953 25.87961914 945.48235352 27.04272461 944.89233398 C63.1979884 926.46045244 98.47483034 906.0925692 131.62182617 882.62768555 C132.32726562 882.12946289 133.03270508 881.63124023 133.75952148 881.11791992 C148.88819661 870.40038475 163.63582282 859.21117516 177.69604492 847.11987305 C180.37962199 844.83399565 183.11221143 842.63298287 185.87182617 840.44018555 C197.68410966 830.79263511 208.4526195 819.88000395 219.24682617 809.12768555 C220.07561279 808.30357178 220.90439941 807.47945801 221.75830078 806.63037109 C226.58600663 801.7899104 231.17611146 796.81919554 235.62182617 791.62768555 C236.54732043 790.57940545 237.47432128 789.53245288 238.40307617 788.48706055 C289.11740199 730.7830823 324.90297982 655.56848437 324.7512207 577.69897461 C324.75294753 576.55959002 324.75467436 575.42020542 324.75645351 574.24629402 C324.76079131 570.46195143 324.75785284 566.67765372 324.75463867 562.89331055 C324.75506094 560.86631315 324.7562258 558.83931714 324.75748783 556.81232011 C324.76248333 548.72288114 324.75774648 540.6334653 324.75059891 532.54402924 C324.74652986 527.83723479 324.74472749 523.13044084 324.74313354 518.42364502 C324.72376997 467.76319809 324.46239411 417.10660126 324.06735408 366.44785118 C324.01473509 359.69269536 323.96266319 352.93753539 323.91088867 346.18237305 C323.90502849 345.41995615 323.89916831 344.65753925 323.89313054 343.87201881 C323.52301031 295.61777092 323.30747328 247.36257396 323.07603598 199.10750294 C323.05374286 194.46496054 323.03132945 189.82241873 323.00891328 185.17987692 C322.87766891 157.99582348 322.74847966 130.81176076 322.62182617 103.62768555 C321.78686111 103.39843384 320.95189606 103.16918213 320.09162903 102.9329834 C316.95696899 102.07180186 313.82255892 101.20971771 310.68830872 100.3470459 C309.33865452 99.97575995 307.98890483 99.60482097 306.63905334 99.23425293 C299.50497664 97.27552284 292.38216257 95.29895606 285.30932617 93.12768555 C261.43850374 85.99930143 236.97914833 80.78313962 212.62182617 75.62768555 C211.52370605 75.39452637 210.42558594 75.16136719 209.29418945 74.92114258 C203.3542269 73.66288748 197.40988991 72.42787722 191.46118164 71.21166992 C188.65987511 70.63551126 185.86153341 70.04637223 183.06323242 69.45581055 C153.89144972 63.37545686 124.382365 58.70024068 94.81518555 55.02758789 C91.92047201 54.66508477 89.02881536 54.28537979 86.13745117 53.8972168 C48.78579202 48.94518894 11.24915953 45.51723678 -26.37817383 43.62768555 C-27.93583466 43.549375 -27.93583466 43.549375 -29.52496338 43.46948242 C-83.82199107 40.7895263 -138.45934016 40.13450381 -192.74023438 43.46948242 C-195.48174854 43.63389715 -198.22370235 43.78670021 -200.96606445 43.9362793 C-244.6308178 46.3198467 -287.99720405 50.65940482 -331.27807617 56.89575195 C-336.29488348 57.6183167 -341.31474974 58.31772136 -346.33520508 59.0144043 C-348.69111016 59.34336178 -351.04690399 59.673098 -353.40261841 60.00341797 C-354.84674038 60.20571822 -356.29096875 60.40726093 -357.73532104 60.60791016 C-366.97795663 61.89639945 -376.14242942 63.45973637 -385.30230713 65.22982788 C-388.15447134 65.77646963 -391.01007565 66.30381852 -393.86587524 66.83108521 C-414.92297261 70.72005946 -435.90101209 74.82906832 -456.70629883 79.92456055 C-457.50583984 80.11896729 -458.30538086 80.31337402 -459.12915039 80.51367188 C-460.57066972 80.86716647 -462.0103497 81.22830124 -463.44750977 81.59912109 C-466.65480205 82.39256128 -468.16530145 82.69864301 -471.37817383 81.62768555 C-439.86777848 69.59306527 -407.9751015 58.31096409 -375.41333008 49.4675293 C-371.44148018 48.36849747 -367.49713748 47.18530104 -363.55004883 46.00097656 C-329.03721284 35.68576815 -293.67775514 28.06409138 -258.31567383 21.31518555 C-257.45315002 21.15010498 -256.59062622 20.98502441 -255.70196533 20.81494141 C-243.62827682 18.51331957 -231.52901397 16.47646724 -219.37817383 14.62768555 C-218.03481533 14.4206728 -216.6914716 14.21356422 -215.34814453 14.00634766 C-167.39943592 6.69090566 -119.20505683 2.3874936 -70.75317383 0.44018555 C-69.70006012 0.39721344 -68.64694641 0.35424133 -67.56192017 0.30996704 C-45.02652793 -0.59038863 -22.54513473 -0.43155492 0 0 Z " fill="#375D95" transform="translate(489.378173828125,5.372314453125)"/>
<path d="M0 0 C6.656623 2.06406915 12.95326689 4.66213974 19.3125 7.5 C26.02804529 10.45130543 32.39453913 13.01147609 39.625 14.3671875 C42 15 42 15 44.4453125 16.4765625 C47.26585284 18.1585361 49.67582064 18.80199723 52.875 19.5 C56.28875392 20.29640432 59.21384986 21.0933163 62.4375 22.5 C66.82769384 24.34850267 71.2310422 25.23677284 75.875 26.25 C78.37045269 26.84890864 80.57836435 27.52380594 82.9375 28.5 C87.81295509 30.4964148 92.97075112 31.33569428 98.12109375 32.3515625 C101 33 101 33 102 34 C104.0598941 34.45387497 106.12049832 34.90465614 108.18359375 35.34375 C111.24503421 36.05709535 114.23551015 36.92144698 117.25 37.8125 C129.70949732 41.42453668 142.41297181 44.6246811 155.234375 46.640625 C157 47 157 47 158 48 C160.96456743 48.54107902 163.94031251 48.96539063 166.921875 49.40234375 C169.84170285 49.96926464 172.26006054 50.87662482 175 52 C176.95352618 52.22791139 178.90733153 52.45407652 180.86328125 52.66015625 C183.03975716 53.00632335 184.87560882 53.60528047 186.9375 54.375 C191.37069651 55.96048348 195.80883792 56.73743119 200.4375 57.5 C205.90966465 58.40319567 211.07293155 59.52048269 216.3515625 61.25 C220.51904603 62.43017233 224.77825923 63.116832 229.03833008 63.87280273 C233.00927293 64.58988926 236.8730933 65.44599576 240.75 66.5625 C245.37481487 67.89075784 249.97201048 68.7219701 254.72265625 69.46484375 C258.56008356 70.09145584 262.37289611 70.81083603 266.1875 71.5625 C267.45980469 71.81128906 268.73210937 72.06007813 270.04296875 72.31640625 C273 73 273 73 274 74 C276.26237083 74.47934173 278.53587678 74.90620333 280.8125 75.3125 C282.27101302 75.5784435 283.72933797 75.84541995 285.1875 76.11328125 C285.96609375 76.25588379 286.7446875 76.39848633 287.546875 76.54541016 C308.54073487 80.43579303 308.54073487 80.43579303 318.3671875 83.28515625 C322.73475023 84.47100785 327.17224889 85.32762667 331.6015625 86.25 C334.5668038 86.90439808 337.45858532 87.6592318 340.375 88.5 C345.55169296 89.96596615 350.78936992 90.92783089 356.07958984 91.87060547 C361.01354789 92.76693922 365.77429128 93.97947723 370.5859375 95.375 C374.03387451 96.26766978 377.46439236 96.60715471 381 97 C381.33 97.33 381.66 97.66 382 98 C383.55442682 98.3320135 385.11957576 98.61406078 386.6875 98.875 C395.95926999 100.50268394 405.1153266 102.20548591 413.9921875 105.3828125 C416.60720927 106.18665188 419.16115326 106.42015664 421.875 106.6784668 C424.05841194 107.0088383 425.9169093 107.59157235 427.9921875 108.33984375 C433.62033442 110.26610981 439.34279595 111.67938728 445.125 113.0625 C446.22577881 113.32708008 447.32655762 113.59166016 448.46069336 113.86425781 C455.64891527 115.55138106 462.71035248 116.82294221 470.05078125 117.63671875 C472.55105013 117.94469889 474.82940029 118.39091645 477.25 119.0625 C481.44352491 120.11088123 485.47422023 120.46387454 489.77734375 120.75390625 C492 121 492 121 493 122 C494.82906235 122.20837419 496.66388134 122.36749659 498.5 122.5 C503.88888889 122.88888889 503.88888889 122.88888889 505 124 C506.82906235 124.20837419 508.66388134 124.36749659 510.5 124.5 C515.88888889 124.88888889 515.88888889 124.88888889 517 126 C518.61764768 126.28502833 520.24518859 126.51444645 521.875 126.71875 C522.85984375 126.84636719 523.8446875 126.97398437 524.859375 127.10546875 C525.89578125 127.23566406 526.9321875 127.36585938 528 127.5 C530.04215744 127.75653968 532.08385749 128.0167564 534.125 128.28125 C535.49011719 128.45237305 535.49011719 128.45237305 536.8828125 128.62695312 C539 129 539 129 540 130 C541.76679068 130.27468807 543.54262949 130.49164074 545.3203125 130.68359375 C546.4134375 130.80669922 547.5065625 130.92980469 548.6328125 131.05664062 C550.93735487 131.30797494 553.24204017 131.55800262 555.546875 131.80664062 C561.23274734 132.44913088 566.56691957 133.18109916 572 135 C571.67 135.66 571.34 136.32 571 137 C557.8 137 544.6 137 531 137 C531 137.66 531 138.32 531 139 C529.15625 140.70703125 529.15625 140.70703125 526.5 142.8125 C524.98019531 144.02292969 524.98019531 144.02292969 523.4296875 145.2578125 C522.8737793 145.69899414 522.31787109 146.14017578 521.74511719 146.59472656 C519.95602559 148.03541084 518.19889156 149.50853606 516.4453125 150.9921875 C480.73146195 181 480.73146195 181 471 181 C471 181.66 471 182.32 471 183 C470.20734741 183.36967896 470.20734741 183.36967896 469.39868164 183.74682617 C466.95171323 184.89038159 464.50711133 186.03891493 462.0625 187.1875 C461.23169922 187.57486328 460.40089844 187.96222656 459.54492188 188.36132812 C454.59751187 190.69065346 449.79933644 193.16500078 445.07275391 195.91674805 C442.17230744 197.43256441 439.16531454 198.36180379 436.046875 199.32421875 C433.21130616 200.26038938 430.65759087 201.64408629 428 203 C421.86888516 205.75071639 415.7924925 207.62312835 409.2578125 209.15234375 C405.65780472 210.08903642 402.19853676 211.27223662 398.6875 212.5 C392.43451332 214.66252459 386.20312433 216.11508801 379.6875 217.31640625 C376.08200732 217.98479737 372.51521837 218.75990916 368.9375 219.5625 C348.43668708 223.93753382 327.84891774 224.17365392 306.95996094 224.13037109 C303.8430509 224.12494437 300.72628109 224.13039149 297.609375 224.13671875 C295.59114552 224.13605885 293.57291613 224.13477952 291.5546875 224.1328125 C290.64097382 224.13483673 289.72726013 224.13686096 288.78585815 224.13894653 C280.58554304 224.10942762 272.65428157 223.49566147 264.66796875 221.6015625 C261.189986 220.81736141 257.6915472 220.15508844 254.1875 219.5 C253.49132568 219.36924072 252.79515137 219.23848145 252.07788086 219.10375977 C248.03973694 218.35358329 243.99801792 217.68255206 239.9375 217.0625 C233.94906626 216.0945066 228.18431846 214.5287533 222.34765625 212.90234375 C219.57131923 212.1539962 216.82615528 211.52018418 214 211 C214 210.34 214 209.68 214 209 C213.113125 208.9175 212.22625 208.835 211.3125 208.75 C198.1958184 206.82727358 185.57961698 200.98601092 173.90942383 194.92089844 C171.768364 193.84539009 171.768364 193.84539009 168.453125 192.74609375 C163.07496596 190.75668263 158.14001639 188.00929375 153.125 185.25 C151.73087891 184.49976563 151.73087891 184.49976563 150.30859375 183.734375 C144.67525034 180.65449966 139.39560792 177.29455434 134.17919922 173.55322266 C131.68455648 171.77516786 129.11574841 170.15595433 126.5 168.5625 C121.86272687 165.64297734 117.61486546 162.42898041 113.3828125 158.953125 C111.20534925 157.16831905 108.99112332 155.45358451 106.75 153.75 C96.28095896 145.57106169 86.60937943 136.8046974 77.1875 127.4375 C75.88087402 126.14465088 75.88087402 126.14465088 74.54785156 124.82568359 C69.38129541 119.63456222 64.6052585 114.26068095 60.03173828 108.53979492 C57.95841663 105.94801829 55.83011108 103.40962727 53.6875 100.875 C44.4713545 89.59650027 36.48490722 77.47484537 29 65 C28.29875 63.88625 27.5975 62.7725 26.875 61.625 C17 45.94117647 17 45.94117647 17 40 C16.34 40 15.68 40 15 40 C13.33703608 36.07506616 11.6834585 32.14633936 10.0378418 28.21411133 C9.47877671 26.88169695 8.91732111 25.55028264 8.35327148 24.2199707 C4.98842232 16.27892667 1.97383376 8.42366783 0 0 Z " fill="#FEB901" transform="translate(133,587)"/>
<path d="M0 0 C5.83027165 -0.35695541 10.993549 0.51420707 16.69726562 1.72631836 C21.79837266 2.79517424 26.90451484 3.63167738 32.0625 4.375 C40.33831995 5.58061735 48.59834108 6.87349075 56.85055542 8.23052979 C58.83998586 8.55675835 60.83026605 8.87779134 62.82055664 9.19873047 C64.05281982 9.40256348 65.28508301 9.60639648 66.5546875 9.81640625 C67.65280762 9.99631104 68.75092773 10.17621582 69.88232422 10.36157227 C73.03420265 11.00700391 75.95986997 11.95791577 79 13 C80.70232139 13.20438205 82.4126319 13.35109611 84.125 13.4375 C88.04052422 13.73587551 91.5912375 14.33176263 95.375 15.375 C102.17897642 17.21342542 109.07739147 18.09084691 116.05419922 18.99755859 C116.93736816 19.11437988 117.82053711 19.23120117 118.73046875 19.3515625 C119.52864014 19.45291504 120.32681152 19.55426758 121.14916992 19.65869141 C123 20 123 20 124 21 C125.66204487 21.20775561 127.33029491 21.36718255 129 21.5 C133.88888889 21.88888889 133.88888889 21.88888889 135 23 C137.38416864 23.28774449 139.76904842 23.44791581 142.1640625 23.62109375 C144.86934509 23.98254335 147.31700238 24.6753502 149.92431641 25.45825195 C154.33507586 26.60944876 158.87504315 27.17564636 163.375 27.875 C171.18706182 29.12841684 178.86233838 30.56860726 186.53417969 32.49511719 C193.64600882 34.24134055 200.84773529 35.42777007 208.07250977 36.60546875 C213.17975263 37.45024248 218.02162524 38.56093854 223 40 C227.5795595 40.95096643 232.18630706 41.75803727 236.7890625 42.58789062 C237.70171875 42.75611328 238.614375 42.92433594 239.5546875 43.09765625 C240.38468262 43.24726807 241.21467773 43.39687988 242.06982422 43.55102539 C244 44 244 44 245 45 C246.32781878 45.20604085 247.66295895 45.3662959 249 45.5 C252.88888889 45.88888889 252.88888889 45.88888889 254 47 C256.47704214 47.4498187 258.95117638 47.85834322 261.4375 48.25 C268.50623459 49.42475316 275.30101897 51.09026747 282.17749023 53.08837891 C287.58083733 54.64488902 293.00241398 55.94641304 298.5 57.125 C306.12495 58.76849738 313.55061337 60.61021831 320.8125 63.5 C324.21723509 64.82634259 327.61533804 65.61259613 331.1875 66.375 C337.02054854 67.65624766 342.346238 69.57973073 347.875 71.8125 C350.77737927 72.91540412 353.61592195 73.74773049 356.625 74.5 C361.43655226 75.73944472 365.72797043 77.55645406 370.203125 79.69921875 C372.99312216 80.99680123 375.81428906 82.08869095 378.6875 83.1875 C388.17758055 87.13239623 400.56994747 92.93198738 406.20703125 101.92578125 C407.75924308 105.98600037 407.9911889 109.77287088 407 114 C404.6875 116.9375 404.6875 116.9375 402 119 C401.52433594 119.49628906 401.04867188 119.99257813 400.55859375 120.50390625 C394.13523575 126.66968598 383.55009208 128.75910686 375.1171875 130.5390625 C371.40868087 131.34644955 367.74731694 132.33291154 364.19921875 133.6875 C358.1163959 135.95527085 351.95434869 136.95049018 345.55932617 137.90991211 C342.21037893 138.42086681 339.04130989 138.98801813 335.78125 139.93359375 C330.13699182 141.5254145 324.39632995 142.48006006 318.625 143.5 C317.37944336 143.72212158 316.13388672 143.94424316 314.85058594 144.1730957 C306.75608615 145.58989563 298.69504667 146.76438363 290.515625 147.54296875 C287.89484511 147.88367014 285.59120124 148.32019845 283.05859375 148.98828125 C278.99747422 150.05722908 274.98381801 150.57316746 270.8125 151 C261.96316663 151.977227 253.10416908 152.96947616 244.4375 155.0625 C239.98427077 156.12044949 235.55506707 156.40893945 230.9921875 156.65625 C227.930281 156.92116382 227.930281 156.92116382 224.80761719 157.94262695 C220.91937455 159.02238964 217.07183584 159.69933891 213.0859375 160.26171875 C211.52282583 160.49206536 209.95975808 160.72271017 208.39672852 160.95361328 C207.57907013 161.0728717 206.76141174 161.19213013 205.91897583 161.31500244 C189.83829357 163.66959041 173.87293184 166.43126115 157.91943359 169.52514648 C156.41637275 169.81640662 154.91328084 170.10750652 153.41015625 170.3984375 C152.32586334 170.60839104 152.32586334 170.60839104 151.21966553 170.82258606 C144.66533045 172.08249155 138.08933096 173.18880083 131.5 174.25 C118.80974972 176.30129488 106.60759314 179.22930616 94.32421875 183.05859375 C92.46313477 183.63770508 92.46313477 183.63770508 90.56445312 184.22851562 C89.27211448 184.63144328 87.97979688 185.03443843 86.6875 185.4375 C84.14993641 186.22849987 81.61212753 187.01870086 79.07421875 187.80859375 C77.86499756 188.1852417 76.65577637 188.56188965 75.40991211 188.94995117 C72.42021117 189.87060011 69.42393185 190.76138136 66.421875 191.640625 C52.02540286 195.94163957 34.56800805 204.14798793 26 217 C23.7519736 222.47899552 22.08328291 228.09226765 23 234 C24.79197091 238.11893604 26.83080239 242.06832933 29 246 C21.55249093 244.111139 16.03982584 240.67760973 10 236 C9.00419922 235.23623047 9.00419922 235.23623047 7.98828125 234.45703125 C3.1035368 230.5047326 -0.97829488 226.06511535 -3 220 C-3.82128039 211.91194754 -3.94462134 205.47075668 1.25 198.94140625 C1.8275 198.30074219 2.405 197.66007813 3 197 C3.495 196.41089844 3.99 195.82179688 4.5 195.21484375 C13.55691694 185.27487741 26.29926598 178.34830837 38.8046875 173.86328125 C39.78163574 173.51177002 40.75858398 173.16025879 41.76513672 172.7980957 C42.5026416 172.53472412 43.24014648 172.27135254 44 172 C44.01981934 171.35264893 44.03963867 170.70529785 44.06005859 170.03833008 C44.53084965 155.28904457 45.41096014 140.67162046 47 126 C47.66 126 48.32 126 49 126 C48.95359375 125.22140625 48.9071875 124.4428125 48.859375 123.640625 C48.614816 116.05929595 49.30575693 109.16674083 50.8125 101.75 C50.97782227 100.93563477 51.14314453 100.12126953 51.31347656 99.28222656 C53.60279552 88.58580409 57.18787251 78.27554763 60.65136719 67.91552734 C61.36877087 65.76864115 62.08298644 63.62071349 62.796875 61.47265625 C65.75113048 52.60607392 68.81709543 43.78724498 72 35 C71.4126709 34.82146484 70.8253418 34.64292969 70.22021484 34.45898438 C65.19626199 32.90882973 60.63759157 30.91598622 55.97265625 28.5078125 C52.32814915 26.65921889 48.63809343 24.92040377 44.9375 23.1875 C44.20837402 22.84557617 43.47924805 22.50365234 42.72802734 22.15136719 C41.22852474 21.44852642 39.72884872 20.74605551 38.22900391 20.04394531 C34.69239503 18.3875883 31.15858718 16.72529144 27.625 15.0625 C26.94179687 14.74112061 26.25859375 14.41974121 25.5546875 14.08862305 C17.02859712 10.07570551 8.51443176 6.03757906 0 2 C0 1.34 0 0.68 0 0 Z " fill="#FEB902" transform="translate(71,318)"/>
<path d="M0 0 C0.66 0.33 1.32 0.66 2 1 C6.41668715 90.0214543 10.76427961 179.00172898 13.0625 319.9375 C13.07328787 320.67300441 13.08407575 321.40850883 13.09519053 322.16630125 C13.5606704 353.95260897 13.99088304 385.73884708 14.27734375 417.52734375 C14.29756189 419.70688422 14.31782984 421.88642423 14.33815002 424.06596375 C14.42046745 432.99063516 14.49888792 441.91521459 14.553298 450.8401041 C14.67861795 487.04136545 14.67861795 487.04136545 19.375 522.875 C19.75084229 524.77221802 19.75084229 524.77221802 20.13427734 526.70776367 C30.06424713 574.56485404 53.60347653 617.72626744 82 657 C82.74765625 658.03511719 83.4953125 659.07023438 84.265625 660.13671875 C92.83389252 671.76734856 102.05518072 683.00039138 111.83984375 693.62890625 C113.68621184 695.65557068 115.49113153 697.70794612 117.2890625 699.77734375 C126.29118523 710.08755936 135.842872 719.93007278 145.5 729.625 C146.45024048 730.58212891 146.45024048 730.58212891 147.41967773 731.55859375 C151.15247334 735.27915068 155.00782232 738.79598145 158.99560547 742.24072266 C162.35686363 745.19093293 165.57284753 748.29273632 168.8125 751.375 C174.99644143 757.20879915 181.30719523 762.75092883 188 768 C189.00546875 768.80050781 190.0109375 769.60101562 191.046875 770.42578125 C194.00019127 772.77222137 196.97415932 775.09117209 199.95361328 777.40429688 C201.3545409 778.49669283 202.75115894 779.59463186 204.14404297 780.69726562 C227.10103854 798.86431509 251.81611287 815.09200989 277 830 C278.51762939 830.8986377 278.51762939 830.8986377 280.06591797 831.81542969 C321.96297694 856.47252062 365.83614094 877.08704579 411 895 C407.05383504 896.31538832 404.39077962 895.18197759 400.5625 894.0078125 C399.44663513 893.67616341 399.44663513 893.67616341 398.30822754 893.33781433 C395.86923 892.6095666 393.43454794 891.86797631 391 891.125 C389.31320917 890.61593692 387.62635978 890.10706782 385.93945312 889.59838867 C321.32319919 870.02653879 260.15545814 842.69558862 204 805 C203.25911133 804.50467773 202.51822266 804.00935547 201.75488281 803.49902344 C189.58206227 795.33810453 177.72371334 786.79153939 166 778 C165.25975586 777.44812012 164.51951172 776.89624023 163.75683594 776.32763672 C150.72285027 766.59694276 138.46995729 756.13841418 126.44140625 745.1953125 C125.13135495 744.01731437 123.81546454 742.84496201 122.46655273 741.71166992 C115.60115029 735.88695693 109.31509626 729.46551571 102.96362305 723.09399414 C100.94235732 721.0673702 98.91580426 719.04614453 96.88867188 717.02539062 C90.71575987 710.8559474 84.59688012 704.70553377 79 698 C78.12372878 696.98972772 77.24617818 695.98056334 76.3671875 694.97265625 C53.23420536 667.96000469 33.42752595 638.18836032 18.01806641 606.11474609 C17.33712356 604.7002792 16.64923674 603.28913509 15.95458984 601.88134766 C0.53519457 570.48556934 -8.68389984 535.74920708 -12 501 C-12.09571289 499.99880127 -12.19142578 498.99760254 -12.29003906 497.96606445 C-13.18473854 487.25101069 -13.15291625 476.55763198 -13.125 465.8125 C-13.1234491 464.73201385 -13.12189819 463.65152771 -13.12030029 462.53829956 C-13.01066404 394.84875542 -11.7948267 327.17252136 -10.19897842 259.50387096 C-10.04392413 252.91445063 -9.89340023 246.32493852 -9.74560547 239.73535156 C-8.47880536 183.287376 -6.72625735 126.89809207 -4 70.5 C-3.95781593 69.62406567 -3.91563187 68.74813133 -3.87216949 67.84565353 C-2.78174096 45.21571294 -1.54695244 22.60366118 0 0 Z " fill="#395E95" transform="translate(17,94)"/>
<path d="M0 0 C1.30666228 1.1010078 2.61393982 2.20128589 3.921875 3.30078125 C13.41538663 11.32847311 13.41538663 11.32847311 15.33837891 13.53735352 C19.75125942 18.56993192 24.84763377 20.10392127 31.125 22.0625 C33.20392264 22.7488909 35.28205916 23.4376677 37.359375 24.12890625 C38.34486328 24.45262207 39.33035156 24.77633789 40.34570312 25.10986328 C45.36159643 26.79197761 50.18267397 28.82300022 55 31 C55.66757324 31.29374512 56.33514648 31.58749023 57.02294922 31.89013672 C59.2927896 32.89169818 61.5533204 33.9121391 63.8125 34.9375 C64.51874512 35.24945312 65.22499023 35.56140625 65.95263672 35.8828125 C72.06274838 38.71196886 78.04252857 42.27248686 80.875 48.625 C83.64223419 57.70498717 83.96184761 67.22733744 80 76 C76.23682732 78.50878179 74.36851282 78.17933687 69.8828125 78.0546875 C68.45704104 78.02939019 67.03125926 78.00466862 65.60546875 77.98046875 C63.36474268 77.93089299 61.12455616 77.87498675 58.88427734 77.80810547 C56.71708873 77.74746811 54.55058193 77.71208533 52.3828125 77.6796875 C50.43979248 77.62917236 50.43979248 77.62917236 48.45751953 77.57763672 C44.41305326 78.07170017 42.92570377 79.25452506 40 82 C34.04566531 84.98191562 27.08438926 85.09009038 20.6875 83.3828125 C15.32407119 81.0153615 11.15319372 76.90801458 8 72 C7.30859375 69.24609375 7.30859375 69.24609375 7 67 C5.86135498 67.0414917 4.72270996 67.0829834 3.54956055 67.12573242 C-1.12465503 67.12028305 -5.2935257 66.17836503 -9.79296875 64.98828125 C-10.6125708 64.77985596 -11.43217285 64.57143066 -12.27661133 64.35668945 C-14.91583135 63.6837807 -17.55154829 62.9980872 -20.1875 62.3125 C-22.01509841 61.84484208 -23.84298105 61.37829353 -25.67114258 60.9128418 C-29.22684304 60.00736472 -32.78167603 59.09860757 -36.3359375 58.1875 C-42.37419355 56.64445715 -48.43158195 55.19081065 -54.5 53.77172852 C-59.45694539 52.61046079 -64.40233398 51.40952237 -69.34375 50.18359375 C-71.31063233 49.69864578 -73.27767482 49.21435329 -75.24478149 48.73031616 C-77.12490033 48.26547709 -79.0032809 47.79362469 -80.8815918 47.3215332 C-86.86739057 45.85163426 -92.67369078 44.6289754 -98.828125 44.18994141 C-101.19490766 43.98295434 -103.47970055 43.56930687 -105.8125 43.125 C-107.98643977 42.79895439 -107.98643977 42.79895439 -110 43 C-112.87551522 45.20864421 -112.87551522 45.20864421 -115 48 C-120.38600379 51.6405396 -127.80944182 50.62673006 -134 50 C-139.65752851 48.11933805 -143.76207161 45.05116829 -147 40 C-147.4125 39.360625 -147.825 38.72125 -148.25 38.0625 C-149.24713635 35.32037505 -149.13144145 32.89171193 -149 30 C-150.23363281 29.75636719 -151.46726563 29.51273438 -152.73828125 29.26171875 C-158.72973516 27.9236391 -164.42819388 25.9174783 -170.1875 23.8125 C-171.24130859 23.45091797 -172.29511719 23.08933594 -173.38085938 22.71679688 C-179.62713475 20.43003821 -184.82037103 18.13875063 -188 12 C-188.25390625 9.15625 -188.25390625 9.15625 -187.5625 6.5 C-187.32660156 5.56414063 -187.09070313 4.62828125 -186.84765625 3.6640625 C-185.76492891 0.26120515 -184.65443726 -2.82899525 -183 -6 C-182.34 -6.33 -181.68 -6.66 -181 -7 C-180.10572305 -10.04730506 -179.37070993 -13.09248835 -178.67578125 -16.18945312 C-177.46375129 -21.18045456 -175.71273114 -25.28726886 -172 -29 C-168.23957988 -29.12747187 -164.83019165 -29.14438116 -161.125 -28.5 C-153.61204538 -27.29792726 -147.07852648 -28.07206864 -139.6875 -29.8125 C-93.41714949 -40.51892887 -36.64867906 -31.32555618 0 0 Z " fill="#F66744" transform="translate(373,562)"/>
<path d="M0 0 C17.24225386 1.60393059 31.32367843 9.59273696 43 22 C44.33984375 24.3359375 44.33984375 24.3359375 45 26 C44.360625 26.20625 43.72125 26.4125 43.0625 26.625 C40.64576118 27.88634445 40.64576118 27.88634445 40.37109375 31.0859375 C40.18740234 32.52839844 40.18740234 32.52839844 40 34 C31.15218307 32.01782324 22.34716867 29.9207438 13.625 27.4375 C12.54714233 27.14129761 12.54714233 27.14129761 11.44750977 26.83911133 C4.84078225 24.91238049 4.84078225 24.91238049 3 22 C2.3046875 19.1796875 2.3046875 19.1796875 1.875 15.875 C1.7203125 14.72386719 1.565625 13.57273437 1.40625 12.38671875 C1.2721875 11.26910156 1.138125 10.15148437 1 9 C0.82984375 7.58654297 0.82984375 7.58654297 0.65625 6.14453125 C0.42199681 4.09806934 0.20839893 2.04925616 0 0 Z " fill="#F8F2F0" transform="translate(322,542)"/>
<path d="M0 0 C7.02768222 -0.22436473 13.4229869 0.59490439 20.3125 1.9375 C21.28767578 2.11990234 22.26285156 2.30230469 23.26757812 2.49023438 C27.20708471 3.23379258 31.11809298 3.99386965 35 5 C35.12802798 12.3544963 35.08958956 19.70916615 34 27 C33.505 27.495 33.505 27.495 33 28 C28.2897362 27.49594422 23.77826082 26.53366058 19.19140625 25.37109375 C17.95068359 25.05849609 16.70996094 24.74589844 15.43164062 24.42382812 C14.15482422 24.09833984 12.87800781 23.77285156 11.5625 23.4375 C10.24552583 23.10448881 8.92846919 22.7718036 7.61132812 22.43945312 C4.40672767 21.62949916 1.20300104 20.81625173 -2 20 C-1.85953745 17.04132082 -1.71287776 14.08317736 -1.5625 11.125 C-1.52318359 10.28324219 -1.48386719 9.44148437 -1.44335938 8.57421875 C-1.40146484 7.76855469 -1.35957031 6.96289062 -1.31640625 6.1328125 C-1.27974854 5.38918457 -1.24309082 4.64555664 -1.20532227 3.87939453 C-1 2 -1 2 0 0 Z " fill="#F8F1EE" transform="translate(280,534)"/>
<path d="M0 0 C3.53067767 2.02270856 5.74165817 4.61248725 8 8 C8.71249183 13.27741041 8.64556003 17.70887994 6.25 22.5 C2.43756681 26.73603687 -0.43477063 28.69820831 -6.1875 29.375 C-11.14227559 28.88764502 -14.29633437 27.30326935 -18 24 C-21.08080567 18.8974156 -21.64390991 14.79518918 -21 9 C-18.9293906 4.69313245 -16.36833073 1.83865638 -12.05859375 -0.3671875 C-7.95105087 -1.62984774 -4.08284997 -1.17709843 0 0 Z " fill="#F8F2F0" transform="translate(252,577)"/>
<path d="M0 0 C4.66763779 2.34887579 7.42578626 5.39336703 9.12890625 10.3515625 C10.09325467 15.40196452 9.25843885 19.50711252 6.453125 23.80859375 C3.61090241 27.12032803 0.39261109 28.92684418 -3.890625 29.73046875 C-10.33636309 30.11252971 -13.62607292 27.30118586 -18.24609375 23.2890625 C-20.75797337 18.74835703 -20.61556293 14.42139761 -19.87109375 9.3515625 C-15.95248057 1.51433614 -8.9119875 -3.08849671 0 0 Z " fill="#F8F2F0" transform="translate(407.87109375,610.6484375)"/>
<path d="M0 0 C-0.14139481 2.25028329 -0.28828003 4.50022206 -0.4375 6.75 C-0.51871094 8.00296875 -0.59992188 9.2559375 -0.68359375 10.546875 C-0.92515522 13.18317553 -1.24283934 15.48037294 -2 18 C-16.5979616 16.84143162 -16.5979616 16.84143162 -21.73046875 12.5546875 C-23 11 -23 11 -23.4375 8.5 C-23 6 -23 6 -21.30078125 4.44921875 C-14.95641214 0.45302021 -7.34393543 -0.41569446 0 0 Z " fill="#F9EDEA" transform="translate(278,534)"/>
<path d="M0 0 C3.875 1.75 3.875 1.75 5 4 C5.12148305 5.62165752 5.17543652 7.24884327 5.1875 8.875 C5.20167969 9.73867188 5.21585938 10.60234375 5.23046875 11.4921875 C5 14 5 14 3 18 C-1.455 17.01 -1.455 17.01 -6 16 C-4.73130765 10.07943568 -2.86034565 5.33931188 0 0 Z " fill="#FAEBE6" transform="translate(201,535)"/>
<path d="M0 0 C8.07928389 -0.62148338 8.07928389 -0.62148338 11.5 1.6875 C13.1175594 4.18123741 13.67357189 6.06214703 14 9 C8.08507728 8.54775239 2.64800112 7.8417395 -3 6 C-2 4 -1 2 0 0 Z " fill="#FBECE6" transform="translate(437,608)"/>
<path d="M0 0 C3.68325543 0.3953068 6.90605696 1.65450354 10.3125 3.0625 C11.19550781 3.42472656 12.07851563 3.78695312 12.98828125 4.16015625 C13.98408203 4.57587891 13.98408203 4.57587891 15 5 C11.1280483 6.29065057 8.55767399 5.22324098 4.8125 4.0625 C3.83120117 3.76956055 3.83120117 3.76956055 2.83007812 3.47070312 C1.21772593 2.98817437 -0.39146289 2.49509795 -2 2 C-1.34 1.34 -0.68 0.68 0 0 Z " fill="#71839E" transform="translate(413,984)"/>
<path d="M0 0 C3.3 0.33 6.6 0.66 10 1 C10.33 1.99 10.66 2.98 11 4 C3.375 3.125 3.375 3.125 0 2 C0 1.34 0 0.68 0 0 Z " fill="#FDD3C4" transform="translate(261,558)"/>
<path d="M0 0 C4.95 0.99 4.95 0.99 10 2 C10 2.66 10 3.32 10 4 C6.7 3.67 3.4 3.34 0 3 C0 2.01 0 1.02 0 0 Z " fill="#FCD5C5" transform="translate(322,573)"/>
<path d="M0 0 C4.81938524 -0.23509196 8.46298506 0.54815522 13 2 C12.67 2.66 12.34 3.32 12 4 C9.03 4 6.06 4 3 4 C3.66 3.34 4.32 2.68 5 2 C3.35 1.67 1.7 1.34 0 1 C0 0.67 0 0.34 0 0 Z " fill="#F3D272" transform="translate(692,720)"/>
</svg>
